<?xml version="1.0" standalone="no"?>
<!DOCTYPE svg PUBLIC "-//W3C//DTD SVG 20010904//EN"
 "http://www.w3.org/TR/2001/REC-SVG-20010904/DTD/svg10.dtd">
<svg version="1.0" xmlns="http://www.w3.org/2000/svg"
 width="719.000000pt" height="719.000000pt" viewBox="0 0 719.000000 719.000000"
 preserveAspectRatio="xMidYMid meet">
<metadata>
Created by potrace 1.11, written by Peter Selinger 2001-2013
</metadata>
<g transform="translate(0.000000,719.000000) scale(0.100000,-0.100000)"
fill="#000000" stroke="none">
<path d="M3898 7186 c-1 -2 -43 -6 -93 -10 -49 -3 -106 -8 -125 -11 -19 -2
-57 -7 -85 -10 -86 -10 -120 -15 -145 -20 -14 -3 -41 -8 -60 -11 -172 -27
-563 -142 -774 -229 -1095 -449 -1903 -1390 -2155 -2510 -16 -71 -32 -146 -35
-165 -3 -19 -8 -44 -10 -55 -2 -12 -7 -48 -11 -80 -4 -33 -8 -70 -10 -82 -11
-69 -19 -251 -19 -408 0 -161 11 -402 19 -415 2 -3 6 -29 9 -59 3 -29 10 -81
16 -115 86 -490 241 -897 503 -1321 71 -116 234 -335 325 -439 85 -97 335
-339 432 -417 460 -374 980 -623 1563 -748 54 -12 114 -24 135 -27 20 -3 64
-9 97 -14 33 -5 85 -12 115 -15 30 -3 71 -8 90 -11 84 -12 530 -11 641 1 524
59 1011 235 1468 532 62 41 134 89 159 109 25 19 47 32 50 29 2 -2 4 -151 4
-330 l0 -325 379 0 379 0 0 48 c1 26 1 739 1 1584 1 1019 4 1536 11 1532 6 -4
5 3 -1 15 -9 16 -9 21 1 21 9 0 9 3 0 12 -9 9 -7 15 6 25 13 10 14 13 2 11
-12 -3 -15 11 -15 74 0 42 2 75 6 73 3 -2 4 21 2 51 -2 52 2 60 30 55 5 -1 6
3 2 8 -3 6 -11 8 -18 5 -9 -3 -14 7 -15 31 -2 26 1 33 12 29 8 -3 17 0 21 6 3
6 3 10 -2 9 -36 -6 -43 13 -15 39 9 10 13 14 8 10 -19 -15 -22 -8 -26 45 -6
108 -8 142 -10 142 -2 0 -5 22 -13 106 -2 25 -7 51 -11 58 -5 7 -1 20 9 31 15
17 15 18 -2 16 -14 -1 -18 6 -16 32 1 17 -3 32 -8 32 -5 0 -9 6 -7 13 1 6 -2
23 -6 36 -6 19 -4 28 10 39 18 13 17 14 -6 7 -23 -7 -24 -7 -10 10 8 11 10 16
4 12 -7 -4 -14 0 -18 8 -3 8 -1 17 4 20 6 4 10 1 10 -4 0 -6 5 -11 11 -11 8 0
8 4 -1 15 -6 8 -8 20 -4 26 4 8 3 9 -4 5 -7 -4 -12 -2 -12 3 0 6 -3 10 -8 8
-4 -1 -8 1 -9 6 -2 4 -10 21 -18 37 -9 17 -13 30 -10 30 3 0 1 9 -5 20 -7 14
-7 20 0 20 5 0 10 -4 10 -10 0 -5 4 -10 8 -10 5 0 9 7 9 15 0 8 -2 13 -5 10
-10 -10 -43 17 -38 31 3 8 0 14 -6 14 -6 0 -3 8 6 19 12 13 14 21 6 26 -5 3
-8 10 -5 15 6 10 -23 35 -32 26 -3 -3 -1 -6 6 -6 7 0 10 -4 7 -9 -3 -5 1 -14
9 -21 15 -13 12 -30 -6 -30 -6 0 -7 5 -4 10 3 6 1 10 -4 10 -6 0 -11 7 -11 15
0 9 -7 27 -16 41 -9 13 -14 27 -11 31 3 3 -1 12 -9 20 -13 13 -13 18 -1 37 14
20 13 22 -6 24 -16 1 -18 -1 -8 -7 7 -5 9 -11 4 -14 -11 -7 -33 34 -33 58 0 8
-4 15 -9 15 -5 0 -12 7 -15 16 -3 9 -2 12 4 9 6 -4 10 -3 9 2 -3 20 2 27 11
13 6 -9 10 -10 10 -3 0 16 -17 26 -25 13 -9 -15 -25 -12 -25 5 0 8 5 14 11 12
6 -1 14 5 16 13 3 9 1 11 -4 5 -14 -17 -43 -18 -37 0 3 8 1 15 -5 15 -6 0 -18
14 -27 32 -9 18 -23 38 -30 45 -15 15 -8 46 9 36 6 -3 7 -1 3 6 -6 9 -11 9
-21 1 -9 -8 -15 -8 -20 0 -3 5 -3 10 1 10 3 0 -4 9 -17 20 -13 10 -20 19 -15
20 6 0 -5 16 -24 35 -19 19 -31 35 -28 35 4 0 -6 15 -23 32 -33 36 -36 48 -14
48 8 0 15 5 15 10 0 7 -7 7 -21 -1 -18 -9 -24 -8 -31 4 -5 9 -15 22 -23 30 -8
8 -12 17 -9 20 3 3 -4 8 -15 12 -12 3 -21 10 -21 15 0 5 -12 21 -26 35 -21 21
-24 29 -13 41 6 8 9 17 5 21 -3 3 -6 1 -6 -6 0 -7 -5 -9 -10 -6 -6 4 -7 11 -4
17 4 7 2 8 -4 4 -7 -4 -17 3 -23 18 -7 14 -16 23 -20 20 -9 -5 0 -19 35 -54
11 -11 16 -20 12 -20 -5 0 -31 23 -60 51 -28 28 -61 58 -73 66 -21 14 -32 43
-17 43 13 0 44 -22 44 -31 0 -6 -5 -7 -12 -3 -7 5 -8 3 -3 -5 5 -10 10 -10 19
-1 17 18 -29 51 -63 44 -24 -5 -24 -4 -9 9 10 8 15 17 12 20 -4 3 -13 -1 -21
-9 -14 -13 -18 -13 -35 6 -22 24 -17 40 7 20 8 -7 12 -17 8 -23 -3 -6 -1 -7 5
-3 7 4 12 8 12 10 0 6 -39 47 -47 49 -4 1 -6 7 -5 12 2 6 0 7 -3 3 -9 -9 -47
10 -41 21 3 4 -5 13 -17 21 -20 12 -21 12 -9 -3 8 -9 10 -21 6 -28 -4 -8 -12
-2 -21 17 -7 16 -11 21 -8 12 2 -10 0 -18 -5 -18 -16 0 -22 21 -10 35 7 8 9
15 5 15 -4 0 -14 -8 -21 -17 -13 -17 -13 -17 -14 0 0 9 -3 16 -7 16 -21 -3
-33 2 -33 16 0 8 5 15 11 15 5 0 7 -4 4 -10 -3 -5 -1 -10 4 -10 15 0 14 15 -3
29 -11 10 -16 8 -21 -9 l-7 -22 -24 23 c-16 15 -22 29 -18 43 3 12 2 17 -3 11
-13 -17 -49 -17 -63 0 -7 8 -16 12 -21 9 -5 -3 -12 2 -16 11 -3 10 0 21 8 26
10 6 11 9 1 9 -7 0 -15 -6 -18 -14 -4 -10 -25 -3 -87 31 -45 24 -83 43 -85 42
-13 -6 -61 27 -70 49 -10 23 -11 24 -8 4 3 -15 0 -22 -7 -19 -7 2 -13 9 -13
15 -1 7 -2 15 -3 20 0 4 -10 13 -22 20 -12 8 -19 10 -16 5 3 -5 2 -14 -2 -21
-9 -16 -81 12 -81 31 0 8 4 7 10 -3 5 -8 10 -10 10 -5 0 6 -4 16 -9 24 -7 11
-10 9 -16 -8 -6 -20 -8 -20 -36 -6 -16 9 -31 15 -34 15 -3 0 -6 0 -7 1 -2 0
-14 3 -27 5 -33 6 -36 11 -21 29 7 8 9 15 5 15 -4 0 -13 -7 -19 -15 -10 -14
-17 -14 -51 -3 -22 8 -47 13 -55 13 -9 0 -15 9 -14 21 0 23 -15 26 -37 7 -8
-6 -21 -9 -29 -7 -78 16 -85 21 -68 42 12 15 11 16 -4 3 -10 -7 -15 -17 -12
-22 7 -11 -7 -11 -25 0 -11 7 -10 11 5 21 14 8 14 10 3 7 -9 -3 -23 0 -30 6
-11 10 -11 9 -1 -4 6 -9 9 -19 5 -22 -10 -11 -33 -8 -33 4 0 5 5 7 11 3 8 -4
8 0 0 15 -14 26 -19 27 -17 4 1 -13 -7 -18 -27 -19 -15 -1 -30 3 -33 8 -3 5 0
7 7 6 6 -2 14 4 16 12 4 13 3 13 -6 0 -6 -8 -11 -11 -11 -6 0 5 -6 4 -12 -1
-17 -14 -50 -12 -45 1 2 6 11 10 21 8 9 -2 16 1 16 6 0 4 -11 8 -24 8 -14 0
-22 -4 -20 -8 8 -13 -11 -9 -25 5 -11 10 -13 10 -7 0 4 -8 2 -14 -6 -14 -50
-6 -85 -4 -95 4 -9 6 -13 5 -14 -4 0 -8 -3 -7 -8 4 -4 10 -11 18 -15 17 -5 -1
-13 4 -18 12 -8 10 -9 10 -5 -2 2 -8 10 -14 16 -13 6 2 11 -1 11 -6 0 -5 -13
-9 -30 -9 -16 1 -30 6 -30 12 0 8 -2 8 -8 0 -8 -12 -112 -14 -112 -1 0 4 3 6
8 3 4 -2 18 2 32 10 18 9 20 13 8 14 -9 0 -20 -5 -24 -11 -5 -8 -9 -8 -14 1
-6 9 -10 6 -15 -9 -3 -12 -11 -19 -16 -15 -6 3 -5 12 3 22 11 15 11 15 -4 4
-13 -10 -17 -10 -22 0 -3 7 -3 2 1 -12 5 -23 5 -24 -12 -10 -11 9 -16 10 -11
3 4 -7 4 -13 1 -13 -10 0 -35 27 -30 32 3 3 -2 5 -10 5 -11 0 -12 -4 -3 -14 6
-7 8 -17 4 -20 -4 -4 -11 -1 -16 7 -6 8 -10 10 -10 4 0 -20 -73 -12 -93 11
-10 11 -16 15 -13 8 4 -6 3 -13 -1 -16 -5 -2 -2 -2 5 -1 6 2 12 -1 12 -6 0 -6
-8 -11 -17 -11 -10 -1 -36 -3 -58 -5 -51 -3 -133 -13 -163 -19 -17 -3 -22 0
-19 9 4 9 0 13 -11 11 -9 -2 -20 -4 -24 -4 -5 -1 -8 -6 -8 -12 0 -8 5 -8 15 1
9 7 15 8 15 2 0 -13 -24 -22 -50 -17 -11 2 -20 0 -20 -4 0 -13 -34 -9 -52 6
-11 10 -18 11 -23 3 -4 -6 -4 -14 -1 -17 3 -4 6 -1 6 6 0 7 5 9 10 6 14 -9 12
-22 -3 -22 -7 0 -25 -3 -40 -7 -20 -5 -29 -2 -33 9 -9 22 -23 18 -34 -10 -11
-29 -34 -33 -50 -7 -10 15 -10 15 -5 -4 5 -21 0 -23 -47 -25 -10 0 -18 -6 -18
-12 0 -7 -5 -4 -11 6 -11 18 -29 14 -29 -6 0 -7 4 -6 10 3 7 10 10 11 10 2 0
-12 -13 -20 -42 -26 -7 -2 -21 -6 -30 -9 -39 -15 -48 -16 -53 -6 -4 5 -3 9 2
8 19 -3 33 2 33 12 0 6 -5 7 -12 2 -7 -4 -17 -8 -23 -8 -5 0 -9 -9 -7 -19 2
-10 -1 -15 -7 -12 -5 4 -13 1 -16 -4 -5 -8 -11 -6 -18 4 -9 12 -16 13 -27 5
-12 -9 -12 -10 3 -5 12 4 17 2 14 -6 -2 -7 -10 -12 -16 -11 -6 2 -11 -2 -11
-8 0 -6 -7 -8 -16 -5 -8 3 -13 2 -10 -3 3 -5 -6 -12 -22 -17 -30 -8 -30 -8
-53 1 -10 4 -19 0 -23 -11 -5 -14 -4 -15 8 -5 11 9 16 9 22 -1 4 -7 4 -10 0
-6 -4 3 -30 -7 -58 -23 -28 -17 -53 -28 -55 -25 -3 2 -29 -11 -58 -29 -29 -19
-55 -31 -59 -28 -3 4 -6 2 -6 -3 0 -6 -16 -16 -35 -24 -19 -7 -36 -19 -39 -27
-3 -7 -15 -13 -26 -13 -14 0 -19 4 -14 12 4 7 3 8 -5 4 -8 -5 -9 -12 -2 -20
14 -16 -25 -41 -42 -27 -14 11 -47 -9 -47 -29 0 -7 9 -2 20 11 14 17 19 20 20
9 0 -21 -33 -40 -51 -30 -13 9 -49 -19 -49 -37 1 -4 9 2 20 15 10 12 21 19 24
14 6 -10 -54 -58 -66 -54 -5 1 -8 -2 -8 -8 0 -5 -5 -10 -11 -10 -6 0 -9 7 -5
15 8 22 -2 18 -15 -6 -8 -15 -8 -19 0 -15 6 4 11 3 11 -1 0 -9 -52 -43 -65
-43 -3 0 -3 5 1 12 4 7 3 8 -5 4 -9 -6 -9 -11 -1 -21 8 -9 8 -15 0 -20 -5 -3
-10 -4 -10 -1 0 3 -19 -15 -42 -39 -42 -44 -68 -57 -68 -33 0 6 -3 8 -6 5 -4
-4 -2 -13 5 -20 9 -11 8 -17 -4 -27 -10 -9 -15 -9 -15 -1 0 6 5 11 12 11 6 0
9 2 6 5 -10 10 -37 -7 -32 -19 3 -7 -7 -27 -22 -45 -20 -24 -29 -29 -39 -21
-11 9 -12 6 -7 -12 5 -21 4 -22 -11 -9 -15 12 -17 12 -11 -2 8 -21 -26 -65
-45 -59 -8 3 -11 0 -7 -7 4 -6 -1 -22 -11 -36 -20 -28 -38 -33 -29 -9 6 14 4
15 -9 4 -13 -11 -13 -15 -3 -22 10 -7 9 -12 -6 -23 -10 -8 -23 -12 -29 -8 -6
3 -7 1 -3 -6 4 -6 12 -8 18 -5 6 4 5 -2 -2 -15 -9 -18 -30 -21 -30 -5 0 3 5 2
12 -2 7 -5 8 -3 4 5 -10 16 -20 5 -21 -22 0 -16 -5 -21 -20 -20 -11 1 -14 0
-7 -3 18 -8 15 -27 -4 -20 -15 6 -15 4 -3 -11 12 -15 12 -16 -4 -10 -11 4 -16
3 -12 -3 3 -5 1 -19 -6 -31 -8 -15 -13 -18 -19 -10 -5 9 -9 8 -13 -4 -4 -9 -3
-13 3 -10 16 10 12 -21 -5 -35 -8 -6 -20 -8 -27 -4 -10 6 -10 4 0 -9 12 -14
11 -20 -5 -44 -11 -15 -30 -49 -43 -74 -17 -33 -28 -45 -39 -41 -12 4 -13 2
-5 -7 9 -10 7 -25 -10 -62 -11 -27 -25 -49 -29 -49 -5 0 -5 5 -1 12 4 7 3 8
-5 4 -9 -6 -9 -11 0 -22 9 -11 8 -14 -5 -14 -9 0 -16 -5 -16 -11 0 -5 5 -7 11
-3 7 4 6 -3 -2 -17 -7 -13 -14 -28 -15 -34 0 -5 -2 -16 -2 -22 -1 -7 -7 -13
-13 -13 -8 0 -8 4 0 14 8 10 9 16 1 21 -6 4 -10 3 -9 -2 1 -4 0 -10 -1 -13 -8
-20 -7 -39 2 -34 6 4 8 1 6 -7 -3 -8 -9 -13 -14 -12 -5 1 -9 -13 -10 -31 0
-18 -4 -41 -9 -52 -4 -10 -9 -23 -10 -29 -2 -5 -4 -17 -6 -25 -2 -8 -12 -21
-22 -28 -9 -7 -15 -17 -12 -22 3 -4 2 -10 -2 -13 -5 -2 -2 -2 5 -1 17 5 15
-21 -3 -39 -11 -12 -12 -17 -2 -20 7 -3 5 -6 -5 -6 -10 -1 -18 -6 -18 -12 0
-5 5 -7 10 -4 6 3 10 -3 10 -14 0 -11 -5 -23 -12 -27 -8 -5 -9 -1 -4 12 6 15
5 16 -5 7 -10 -10 -9 -16 1 -28 11 -13 9 -19 -10 -40 -13 -14 -19 -25 -13 -25
6 0 14 6 16 13 3 6 3 -8 0 -33 -3 -25 -10 -51 -16 -58 -6 -8 -12 -24 -14 -35
-2 -18 -1 -19 7 -7 8 11 9 8 6 -15 -2 -16 -5 -38 -5 -48 -1 -10 -6 -15 -11
-12 -5 3 -10 1 -10 -4 0 -6 4 -11 8 -11 5 0 9 -7 9 -15 0 -8 -4 -12 -9 -9 -4
3 -8 0 -8 -5 0 -6 4 -11 9 -11 12 0 5 -40 -9 -54 -5 -5 -10 -15 -10 -21 0 -5
5 -3 10 5 8 12 10 10 10 -8 0 -13 -4 -21 -8 -18 -5 3 -9 -1 -9 -9 0 -8 3 -15
7 -15 3 0 6 -9 7 -20 1 -11 -2 -18 -7 -15 -4 3 -7 -3 -5 -12 2 -10 4 -18 6
-18 1 0 3 -17 4 -37 1 -22 -2 -35 -7 -31 -6 3 -5 -4 1 -15 13 -25 14 -35 3
-28 -5 3 -9 -1 -9 -9 0 -8 4 -15 9 -15 4 0 8 -7 8 -16 0 -9 -5 -12 -13 -8 -6
4 -5 -1 4 -12 11 -13 15 -37 14 -76 -1 -31 1 -55 4 -53 3 2 6 -7 6 -20 0 -13
-3 -21 -7 -18 -5 2 -8 0 -8 -6 0 -5 5 -11 10 -13 14 -4 23 -58 10 -58 -5 0
-10 -5 -10 -11 0 -5 5 -7 10 -4 5 3 10 1 10 -4 0 -16 0 -17 10 -51 5 -19 5
-28 -1 -25 -5 4 -9 1 -9 -4 0 -6 5 -11 11 -11 7 0 10 -12 7 -29 -2 -17 -1 -28
3 -25 11 6 21 -52 14 -78 -4 -16 -3 -19 3 -10 7 11 10 9 15 -7 3 -14 1 -19 -6
-14 -8 4 -7 1 1 -9 7 -9 12 -20 11 -24 -4 -23 2 -35 14 -28 7 5 6 0 -3 -11
-12 -15 -12 -17 -1 -10 11 6 13 3 9 -13 -4 -12 -3 -20 1 -17 5 2 13 -7 19 -20
8 -18 8 -26 0 -31 -8 -5 -7 -10 4 -18 19 -15 32 -49 15 -41 -6 4 -4 0 6 -8 20
-16 23 -31 5 -22 -7 4 -5 0 5 -8 14 -11 15 -16 5 -20 -8 -3 -6 -6 6 -6 14 -1
17 -7 13 -26 -3 -17 1 -30 12 -38 9 -7 22 -25 29 -42 11 -28 11 -28 -3 -11 -8
11 -15 15 -15 9 0 -6 12 -21 28 -33 15 -12 20 -19 12 -15 -8 4 -6 -1 4 -9 15
-12 16 -16 5 -16 -10 -1 -9 -3 4 -11 9 -6 15 -14 12 -19 -3 -4 2 -10 10 -14 9
-3 12 -12 8 -23 -3 -10 -3 -15 2 -11 4 4 14 0 21 -10 9 -13 10 -20 1 -31 -7
-8 -7 -12 -2 -9 6 3 19 -4 30 -15 12 -11 14 -17 5 -13 -8 4 -7 1 4 -8 10 -8
16 -22 13 -30 -4 -9 -1 -18 5 -22 7 -4 8 -3 4 4 -4 7 -3 12 3 12 5 0 11 -12
13 -28 2 -15 9 -26 15 -25 7 2 15 -8 19 -22 3 -14 10 -23 14 -20 4 3 11 -2 14
-11 9 -22 8 -26 -6 -18 -7 5 -8 3 -4 -5 5 -7 14 -10 21 -7 8 3 17 -4 21 -17 4
-12 15 -28 26 -35 10 -7 16 -17 13 -22 -3 -4 2 -11 11 -14 9 -3 14 -13 11 -21
-4 -9 -1 -12 7 -9 8 3 17 0 22 -7 5 -8 3 -10 -7 -5 -8 4 -2 -2 14 -14 15 -12
25 -26 21 -31 -3 -5 1 -9 9 -9 8 0 22 -10 33 -22 12 -13 13 -18 4 -13 -13 8
-13 6 -1 -8 7 -9 17 -14 22 -11 5 3 9 -1 9 -9 0 -8 10 -17 21 -20 16 -4 20
-11 16 -26 -3 -11 -2 -20 2 -19 27 3 40 -4 34 -19 -5 -12 -2 -15 9 -10 17 6
60 -34 71 -65 4 -10 15 -18 25 -18 10 0 27 -10 38 -22 l19 -23 -25 20 -25 20
18 -22 c12 -13 25 -19 35 -16 11 5 14 2 9 -10 -3 -9 1 -21 11 -29 15 -12 16
-11 3 5 -7 9 -9 17 -3 17 14 0 33 -26 25 -34 -4 -4 0 -4 9 -1 10 4 22 -2 32
-17 9 -13 20 -22 24 -20 4 1 7 -3 7 -9 0 -12 34 -39 49 -39 6 1 -2 8 -17 16
-16 9 -27 18 -24 20 5 5 77 -35 77 -43 0 -2 -5 -1 -12 3 -7 4 -8 3 -4 -4 4 -7
16 -12 27 -12 10 0 19 -4 19 -10 0 -5 5 -10 11 -10 7 0 18 -8 26 -17 9 -11 12
-12 7 -3 -3 8 6 1 22 -16 16 -16 22 -21 14 -10 -15 20 -14 20 10 4 14 -9 24
-22 22 -30 -3 -10 -1 -10 8 -2 9 9 23 5 56 -13 24 -14 44 -29 44 -34 0 -6 5
-7 10 -4 6 3 10 2 10 -3 0 -6 7 -13 16 -16 8 -3 12 -2 9 4 -12 20 6 9 32 -17
15 -16 23 -22 18 -14 -6 11 -4 13 9 8 10 -4 22 -7 27 -7 5 0 9 -8 9 -17 0 -15
2 -16 10 -3 7 11 10 11 10 2 0 -7 6 -12 13 -10 22 4 87 -26 87 -40 0 -11 3
-12 14 -3 10 8 20 6 42 -11 15 -13 25 -17 21 -11 -6 9 0 10 25 1 18 -6 37 -14
42 -19 5 -4 14 -5 21 -3 7 3 16 0 21 -7 5 -8 3 -10 -7 -4 -12 8 -12 6 0 -8 15
-18 26 -23 16 -7 -3 6 3 10 14 10 31 0 52 -11 44 -24 -5 -8 -3 -8 8 0 17 13
65 2 62 -14 -2 -7 2 -12 7 -12 6 0 10 5 10 10 0 15 52 0 68 -19 12 -14 13 -14
8 2 -7 22 -1 22 23 -4 12 -13 21 -17 26 -10 3 6 11 11 16 11 6 0 8 -4 5 -8 -3
-5 1 -9 9 -9 8 0 12 4 9 9 -3 4 0 8 5 8 6 0 11 -8 12 -17 0 -11 3 -13 6 -5 2
6 9 12 14 12 6 0 7 -4 4 -10 -3 -5 -1 -10 4 -10 6 0 11 4 11 9 0 13 33 7 38
-7 2 -7 8 -12 13 -12 6 0 7 4 4 10 -4 6 6 8 27 6 18 -3 37 -5 41 -5 5 -1 5 -6
1 -13 -5 -7 -3 -8 5 -3 7 4 30 8 51 9 30 2 37 -1 32 -13 -4 -13 -2 -14 9 -3 7
6 20 12 28 12 14 0 14 -1 1 -10 -11 -7 -9 -8 10 -6 14 1 33 6 44 11 10 4 21 4
25 -2 10 -16 41 -24 35 -9 -7 18 48 15 70 -3 14 -12 16 -12 11 1 -5 12 1 15
23 14 16 -1 35 -6 43 -12 8 -6 25 -11 39 -12 18 -1 21 1 11 8 -8 4 -20 6 -28
3 -7 -3 -13 -1 -13 4 0 5 14 10 30 11 17 1 30 -2 30 -8 0 -5 8 -10 18 -10 14
0 15 2 2 10 -9 6 -10 10 -3 10 6 0 15 -4 18 -10 3 -5 12 -10 18 -10 7 0 6 4
-3 11 -12 8 -10 9 10 7 14 -2 24 -9 22 -16 -1 -8 2 -11 8 -7 6 3 8 11 5 16 -4
5 4 10 17 10 44 3 73 6 113 12 27 5 35 4 25 -3 -12 -7 -10 -9 7 -7 12 0 19 5
17 9 -8 13 11 9 25 -4 10 -11 11 -10 6 5 -4 10 -2 17 4 17 6 0 11 -4 11 -10 0
-5 5 -10 11 -10 5 0 7 4 4 10 -3 5 -1 11 4 11 6 1 17 2 24 3 6 1 18 -3 26 -8
11 -8 13 -8 7 2 -4 6 -3 12 3 12 5 0 17 3 27 7 12 5 15 3 9 -6 -4 -8 2 -7 17
3 25 16 62 22 88 14 8 -3 12 -3 7 -1 -4 3 -4 9 -1 14 3 6 12 5 22 -3 12 -10
14 -10 8 -1 -4 7 -4 13 1 14 4 0 17 3 28 6 11 2 34 5 52 6 17 1 29 5 27 8 -2
3 8 11 22 18 31 14 34 14 34 0 0 -5 -5 -7 -12 -3 -7 5 -8 3 -3 -6 6 -10 12 -9
24 6 20 25 48 36 57 23 4 -7 10 -6 18 0 7 6 16 8 19 4 4 -3 13 -1 20 5 8 7 18
8 22 4 5 -4 5 -1 1 6 -6 10 -11 10 -22 1 -8 -6 -17 -9 -21 -5 -10 10 4 19 31
19 16 0 23 4 19 11 -4 6 1 5 10 -3 13 -10 20 -11 30 -2 8 6 18 7 22 3 5 -4 5
-1 0 6 -5 10 -10 11 -18 3 -6 -6 -16 -11 -21 -11 -6 0 -3 7 8 15 13 10 24 11
37 5 12 -7 20 -6 25 2 4 7 3 8 -4 4 -7 -4 -12 -3 -12 1 0 15 58 33 64 19 2 -6
5 -5 5 4 2 22 106 71 121 56 8 -8 9 -6 4 9 -6 16 -4 18 6 8 10 -10 19 -8 40 7
15 11 31 16 35 12 5 -4 5 -1 1 6 -6 9 -15 7 -39 -9 l-32 -21 28 26 c20 19 35
25 49 20 14 -4 18 -2 14 5 -4 6 -3 11 3 11 5 0 12 -6 15 -12 3 -7 3 -2 0 11
-6 21 -3 23 20 19 14 -3 23 -1 20 3 -11 18 7 29 28 18 13 -7 18 -7 14 -1 -3 6
-1 12 6 15 7 2 4 3 -7 1 -20 -3 -20 -3 0 12 11 8 30 13 42 12 12 -2 21 2 20 7
-1 6 -6 9 -12 7 -5 -1 1 6 15 17 19 15 29 17 45 9 17 -10 18 -9 7 4 -10 13 -7
19 21 41 27 20 37 23 53 14 16 -9 17 -9 6 5 -10 13 -10 17 4 22 23 9 24 8 18
-11 -5 -15 -4 -16 5 -3 6 9 7 18 1 24 -5 5 1 16 15 27 32 26 35 24 35 -15 0
-30 -10 -43 -85 -111 -382 -348 -816 -562 -1317 -650 -226 -40 -602 -42 -833
-5 -94 16 -118 20 -145 26 -14 3 -36 8 -49 10 -230 44 -545 165 -787 304 -641
368 -1100 968 -1284 1677 -35 132 -65 304 -76 423 -15 158 -9 510 10 605 2 11
7 43 10 70 4 28 11 68 16 90 5 22 11 51 13 65 3 14 12 54 22 90 259 1012 1106
1798 2160 2003 224 44 311 52 570 52 234 0 316 -6 520 -40 201 -34 398 -89
610 -172 352 -138 706 -356 950 -585 22 -21 42 -38 45 -38 3 1 28 31 57 68 28
37 61 78 72 92 11 14 52 66 91 115 94 119 79 100 213 268 l117 147 -125 103
c-446 371 -992 645 -1575 792 -74 19 -148 36 -165 39 -69 13 -142 26 -175 31
-19 3 -60 10 -90 15 -30 5 -86 12 -125 15 -38 4 -83 9 -100 12 -33 5 -551 13
-557 9z m587 -1096 c3 -5 1 -10 -4 -10 -6 0 -11 5 -11 10 0 6 2 10 4 10 3 0 8
-4 11 -10z m-1035 -61 c0 -5 -4 -9 -10 -9 -5 0 -10 7 -10 16 0 8 5 12 10 9 6
-3 10 -10 10 -16z m1376 -6 c-10 -10 -19 5 -10 18 6 11 8 11 12 0 2 -7 1 -15
-2 -18z m394 -108 c10 -12 10 -15 -4 -15 -9 0 -16 7 -16 15 0 8 2 15 4 15 2 0
9 -7 16 -15z m625 -375 c-5 -9 -55 31 -55 44 0 4 14 -2 30 -14 17 -12 28 -25
25 -30z m-1615 -202 c0 -5 -5 -8 -12 -8 -6 0 -8 -3 -4 -7 4 -5 14 1 22 11 14
20 14 20 15 0 0 -10 3 -13 6 -6 2 6 12 12 21 12 15 0 15 -2 2 -10 -8 -5 -10
-10 -4 -10 5 0 15 5 22 12 9 9 12 9 12 0 0 -7 5 -12 11 -12 5 0 8 4 5 8 -3 5
2 9 10 9 8 0 13 -6 10 -12 -2 -6 2 -12 10 -12 7 0 11 4 8 9 -3 4 -1 8 5 8 5 0
12 -4 15 -9 3 -5 15 -11 26 -14 11 -3 18 -1 14 4 -3 5 -12 9 -21 9 -9 0 -14 2
-11 5 11 11 58 -7 51 -19 -4 -6 -1 -6 9 2 11 9 23 10 42 2 15 -5 38 -10 52
-10 13 0 24 -5 24 -11 0 -6 8 -8 19 -4 13 4 23 0 30 -12 8 -14 11 -15 11 -3 0
12 3 11 11 -2 5 -10 15 -18 22 -18 8 0 6 4 -3 11 -12 9 -12 10 3 5 10 -3 25
-6 33 -6 9 0 12 -5 8 -12 -5 -8 0 -9 15 -5 17 4 21 2 17 -9 -3 -8 -1 -14 4
-14 6 0 10 5 10 11 0 8 4 9 13 0 8 -6 18 -7 22 -3 5 4 5 -1 2 -11 -4 -10 -3
-16 2 -12 5 3 11 2 14 -2 2 -5 2 -2 1 5 -2 6 1 12 6 12 6 0 10 -4 10 -10 0 -6
6 -9 13 -8 6 2 11 -3 9 -11 -3 -12 -1 -12 14 0 16 13 17 12 10 -6 -5 -15 -4
-17 5 -8 9 9 19 8 45 -5 19 -8 34 -20 34 -25 0 -5 -8 -3 -17 4 -16 13 -17 12
-4 -4 9 -12 18 -14 24 -8 10 10 44 -7 86 -46 14 -12 29 -19 34 -16 5 3 21 -8
35 -24 15 -16 20 -20 12 -10 -15 20 -15 20 12 2 15 -9 26 -20 24 -24 -3 -4 5
-13 17 -21 21 -12 21 -12 7 5 -15 18 -14 18 13 0 15 -10 35 -30 43 -44 8 -14
13 -18 9 -7 -4 15 -1 15 20 -5 13 -13 25 -29 25 -35 0 -7 7 -15 16 -18 15 -6
15 -4 4 11 -7 10 7 -2 33 -27 25 -25 46 -51 47 -57 0 -7 6 -12 13 -10 6 1 11
-4 9 -11 -1 -8 1 -11 6 -8 13 8 53 -38 55 -62 0 -11 5 -18 9 -16 5 3 5 10 2
16 -4 7 -2 8 5 4 6 -4 9 -12 6 -17 -4 -5 -1 -9 4 -9 6 0 11 -5 11 -11 0 -5 -5
-7 -12 -3 -7 4 -8 3 -4 -4 4 -6 14 -8 23 -5 11 4 14 3 9 -5 -4 -7 -1 -15 8
-18 9 -3 16 -16 16 -28 0 -17 2 -18 10 -6 8 12 10 10 10 -9 0 -13 3 -21 7 -18
7 7 12 1 68 -88 21 -33 30 -53 20 -45 -17 14 -17 14 -5 -7 8 -12 17 -20 21
-17 4 2 10 -3 13 -12 4 -10 2 -13 -7 -9 -6 4 -5 1 4 -7 23 -19 41 -57 35 -73
-3 -8 -1 -17 5 -20 5 -4 7 -11 3 -16 -3 -5 0 -8 8 -7 8 2 12 -4 10 -16 -2 -10
1 -15 6 -12 5 3 14 -6 21 -20 13 -30 14 -45 1 -24 -7 10 -10 11 -10 2 0 -7 7
-15 15 -18 8 -4 15 -10 15 -16 0 -5 -6 -6 -12 -3 -7 4 -5 0 6 -9 10 -8 16 -22
13 -30 -3 -8 1 -17 10 -20 10 -4 14 -15 11 -36 -2 -16 -1 -27 3 -25 4 3 9 -5
12 -17 4 -13 1 -26 -6 -30 -11 -7 -3 -12 16 -9 11 2 8 -14 -5 -28 -10 -11 -10
-12 -1 -7 22 12 39 -101 18 -116 -6 -5 -3 -8 8 -8 13 0 17 -9 18 -37 0 -21 2
-48 5 -61 2 -13 0 -21 -4 -18 -5 3 -9 -1 -9 -9 0 -8 4 -12 9 -9 4 3 8 0 8 -5
0 -6 -6 -11 -12 -11 -9 0 -8 -3 2 -10 8 -5 15 -22 15 -39 1 -24 -2 -28 -12
-19 -10 8 -12 7 -7 -6 3 -9 9 -16 13 -16 4 0 7 -10 8 -21 2 -21 1 -21 -12 -3
-13 18 -14 18 -8 -3 3 -13 10 -23 15 -23 5 0 6 -5 3 -10 -4 -6 -12 -8 -18 -4
-7 3 -3 -2 7 -10 18 -15 15 -21 -9 -16 -5 1 -4 -4 3 -11 6 -7 12 -17 12 -22 0
-4 -6 -5 -12 -1 -10 6 -10 4 0 -7 14 -15 16 -33 3 -24 -5 3 -13 1 -16 -5 -4
-6 -1 -9 7 -8 9 2 13 -7 12 -27 -2 -51 -4 -56 -12 -51 -5 3 -9 -1 -9 -9 0 -8
3 -12 7 -10 4 2 7 -3 7 -11 0 -8 -6 -13 -13 -10 -11 4 -13 -14 -4 -49 5 -20 0
-36 -10 -30 -5 3 -10 2 -10 -4 0 -5 4 -11 9 -13 12 -4 2 -58 -11 -58 -5 0 -6
6 -2 13 4 6 3 8 -1 4 -12 -10 -15 -38 -4 -31 5 3 9 1 9 -4 0 -6 -8 -13 -17
-16 -11 -5 -13 -10 -6 -17 12 -12 -4 -89 -19 -89 -5 0 -6 6 -2 13 4 6 3 8 -1
4 -13 -11 -15 -38 -2 -30 7 4 8 0 3 -13 -5 -10 -11 -27 -13 -37 -3 -10 -12
-16 -20 -13 -11 5 -11 2 -2 -16 10 -18 9 -20 -7 -14 -10 4 -15 4 -11 0 4 -4 1
-14 -6 -23 -11 -14 -10 -14 6 -2 13 10 11 0 -10 -47 -16 -34 -33 -61 -39 -62
-7 0 -15 -7 -18 -16 -5 -14 -4 -15 9 -4 13 11 14 10 9 -4 -3 -9 -11 -16 -18
-16 -6 0 -24 -18 -39 -40 -18 -26 -23 -38 -13 -34 9 3 16 10 16 15 0 6 10 20
21 32 l21 22 -15 -31 c-9 -17 -23 -36 -31 -43 -9 -7 -14 -17 -11 -21 2 -4 -10
-25 -29 -46 -18 -21 -36 -47 -39 -58 -4 -11 -13 -16 -22 -12 -10 4 -14 -1 -12
-17 1 -15 -3 -22 -15 -21 -9 1 -14 -4 -12 -10 2 -6 -2 -20 -9 -30 -11 -15 -16
-16 -22 -6 -5 8 -4 11 1 7 6 -3 11 4 11 16 2 21 2 22 -10 2 -6 -11 -11 -29
-12 -39 0 -11 -7 -21 -15 -23 -13 -4 -13 -3 0 6 8 6 10 11 4 11 -19 0 -24 -13
-11 -28 9 -13 9 -14 0 -8 -8 4 -13 1 -13 -8 0 -9 -2 -16 -4 -16 -2 0 -12 -3
-20 -6 -12 -5 -15 -2 -10 12 3 11 -4 4 -16 -13 -12 -18 -26 -30 -31 -27 -5 3
-6 -2 -3 -11 7 -18 -14 -48 -28 -39 -5 3 -4 13 4 22 11 15 11 15 -3 4 -10 -7
-15 -20 -13 -30 6 -21 -61 -77 -78 -66 -7 5 -8 3 -3 -6 6 -9 2 -10 -16 -5 -22
7 -23 6 -6 -7 18 -13 17 -15 -8 -26 -15 -7 -30 -10 -33 -8 -7 8 -42 -13 -42
-25 0 -6 7 -3 16 6 9 9 19 13 22 10 7 -6 10 -3 -63 -52 -83 -55 -83 -55 -91
-42 -5 8 -3 9 7 4 8 -5 11 -5 7 -1 -9 11 -23 8 -23 -6 0 -11 -76 -58 -100 -62
-7 -1 -20 -8 -29 -15 -10 -8 -16 -9 -16 -3 0 6 -9 10 -20 9 -11 -1 -20 -5 -20
-9 0 -4 -8 -5 -17 -2 -15 5 -15 4 -4 -4 10 -7 21 -7 33 -1 10 5 18 6 18 2 0
-4 -34 -20 -75 -35 -69 -24 -76 -25 -86 -10 -10 16 -10 16 -5 0 3 -10 1 -20
-4 -23 -13 -8 -41 6 -34 17 3 5 -7 3 -24 -6 -16 -8 -32 -13 -36 -11 -3 3 -3 2
0 -2 8 -11 28 -10 36 2 5 6 11 6 20 -3 9 -9 9 -12 -5 -12 -25 0 -30 -1 -47
-10 -8 -4 -33 -10 -55 -14 -39 -6 -39 -6 -15 8 14 9 34 13 45 11 11 -3 14 -2
7 1 -6 3 -9 10 -6 16 4 6 -3 5 -15 -1 -12 -7 -27 -9 -33 -5 -6 4 -8 3 -4 -4 3
-6 -3 -13 -14 -17 -11 -4 -18 -10 -16 -14 3 -4 -12 -8 -32 -10 -47 -4 -77 -8
-77 -10 0 -2 -8 -4 -18 -6 -11 -2 -15 1 -11 8 5 8 3 8 -6 0 -11 -10 -16 -9
-27 5 -14 16 -14 16 -9 0 4 -13 0 -18 -17 -18 -219 -3 -347 1 -347 11 0 5 -16
6 -34 4 -19 -3 -38 0 -41 5 -4 6 -11 8 -16 4 -6 -3 -18 -3 -27 1 -9 4 -28 8
-42 9 -16 1 -25 7 -25 18 0 9 -4 20 -9 25 -5 4 -6 3 -2 -4 4 -7 2 -13 -4 -13
-6 0 -8 -4 -5 -10 3 -5 2 -10 -4 -10 -5 0 -13 5 -16 11 -4 6 -14 8 -23 4 -12
-4 -11 -1 4 16 l19 22 -28 -18 c-15 -10 -30 -15 -34 -12 -3 4 2 9 11 13 9 3
16 10 16 15 0 5 -10 3 -23 -5 -18 -13 -30 -13 -60 -4 -20 6 -37 15 -37 20 0
11 14 10 27 -3 8 -8 16 -8 30 0 16 11 15 11 -6 5 -13 -3 -21 -2 -18 3 3 5 -4
10 -16 10 -12 1 -25 -3 -29 -10 -5 -9 -10 -8 -20 2 -11 11 -11 13 0 6 11 -6
12 -3 3 14 -13 24 -23 29 -15 7 3 -8 1 -17 -5 -21 -6 -3 -11 0 -11 8 0 8 -7
18 -16 21 -9 3 -12 11 -8 18 4 7 4 10 -1 6 -4 -4 -13 -3 -20 2 -8 7 -12 5 -12
-5 0 -8 3 -13 6 -11 3 2 15 -5 25 -15 24 -23 19 -24 -22 -4 -18 9 -29 21 -26
29 3 7 -3 19 -13 26 -15 12 -16 12 -5 0 33 -37 7 -39 -65 -4 -43 21 -51 29
-42 40 8 9 8 14 1 14 -6 0 -14 -5 -18 -12 -10 -15 -35 19 -27 38 6 16 -22 20
-32 4 -3 -5 0 -7 8 -4 8 3 14 -1 14 -10 0 -17 -8 -14 -85 37 -29 19 -49 37
-45 40 3 4 -1 7 -11 7 -11 0 -14 4 -10 12 5 7 2 9 -7 6 -8 -3 -25 3 -38 13
-13 11 -20 20 -17 20 3 1 10 2 15 3 26 3 17 13 -11 12 -28 -1 -33 2 -30 19 2
16 1 17 -7 5 -5 -8 -13 -11 -17 -7 -4 3 -1 14 6 22 11 13 11 18 0 28 -7 7 -10
7 -7 2 3 -6 2 -17 -3 -25 -7 -11 -18 -5 -51 28 -24 23 -38 42 -32 42 6 0 13
-6 16 -12 3 -7 4 -3 4 10 -1 25 -2 26 -28 12 -12 -7 -19 -7 -19 -1 0 6 -11 21
-24 34 -14 14 -22 28 -19 31 4 3 -1 6 -11 6 -9 0 -20 8 -23 18 -4 9 -17 25
-30 35 -13 10 -23 29 -23 43 0 13 -5 24 -11 24 -5 0 -7 -6 -3 -12 4 -7 4 -10
0 -6 -4 3 -8 10 -8 15 0 4 -9 13 -18 20 -19 13 -36 58 -18 46 7 -4 8 -1 4 6
-5 7 -15 10 -23 7 -8 -3 -12 -2 -8 3 3 5 -1 11 -7 14 -7 2 -10 8 -6 12 4 4 19
0 33 -9 25 -16 25 -16 13 3 -6 11 -14 19 -17 19 -28 -2 -51 4 -46 13 4 6 13 8
21 5 11 -4 11 -2 2 14 -7 11 -25 24 -40 29 -19 7 -26 15 -22 25 3 9 9 14 13
11 4 -2 8 2 8 10 0 13 -3 13 -17 0 -16 -14 -18 -14 -24 0 -3 9 -4 20 -1 25 3
4 -2 10 -10 14 -9 3 -12 12 -8 22 4 11 2 15 -4 11 -6 -4 -15 5 -21 22 -8 22
-7 33 4 45 8 9 9 11 2 6 -23 -19 -31 -10 -12 13 10 12 12 16 4 10 -17 -15 -34
-17 -25 -3 3 6 1 10 -6 10 -7 0 -10 3 -6 6 3 4 0 19 -9 35 -8 16 -12 29 -8 29
4 0 1 7 -6 15 -10 13 -10 19 3 33 10 12 12 24 6 40 -8 22 -29 31 -29 11 0 -5
5 -7 12 -3 8 5 9 2 5 -9 -3 -10 -2 -17 4 -17 6 0 7 -4 4 -10 -12 -19 -23 -10
-31 28 -4 20 -8 42 -9 47 0 6 -4 16 -9 24 -6 9 -4 18 5 25 8 6 16 18 17 26 2
8 1 12 -3 8 -11 -10 -36 18 -41 46 -2 14 1 28 8 32 7 4 10 4 6 -1 -4 -4 -3
-14 3 -22 9 -10 8 -13 0 -13 -7 0 -9 -5 -5 -11 4 -8 9 -7 15 2 4 8 3 19 -3 26
-7 9 -7 13 1 13 6 0 11 4 11 9 0 5 -10 8 -22 6 -20 -4 -23 0 -25 30 -2 19 2
35 7 35 6 0 10 -4 10 -10 0 -5 6 -10 13 -10 6 1 1 10 -13 21 -23 19 -36 69
-19 69 16 0 20 -22 8 -38 -7 -9 -9 -14 -5 -10 5 4 16 2 25 -4 13 -10 14 -10 4
1 -6 7 -9 19 -7 26 3 7 -4 20 -16 28 -16 11 -20 21 -15 36 4 14 2 21 -7 21
-10 0 -9 3 2 10 13 9 13 11 0 20 -11 7 -11 10 -2 10 10 0 10 5 2 20 -6 12 -7
20 -1 20 5 0 7 9 4 20 -4 16 -2 19 11 14 9 -3 13 -11 9 -17 -3 -6 -1 -7 6 -3
8 6 9 12 2 20 -6 7 -8 15 -5 19 3 3 -5 3 -18 0 -13 -2 -19 -1 -13 4 6 4 11 31
12 58 3 90 6 115 15 115 5 0 7 -4 4 -8 -3 -5 1 -9 8 -9 7 0 13 6 13 13 0 7 -3
13 -6 12 -24 -2 -33 3 -23 15 5 6 9 24 7 38 -2 17 2 26 11 26 17 0 18 -9 4
-23 -7 -7 -6 -11 3 -11 16 0 17 34 2 45 -13 9 -18 32 -7 32 4 0 9 12 10 28 2
25 15 75 29 112 3 8 7 20 8 25 1 6 3 13 5 18 1 4 4 12 5 17 1 6 4 12 5 15 3 7
7 22 9 36 1 13 21 2 21 -12 0 -6 -4 -8 -8 -5 -4 2 -9 -4 -9 -15 -1 -10 3 -19
8 -19 6 0 8 4 5 9 -3 5 1 14 9 21 13 10 13 14 -1 27 -19 19 -10 30 11 13 13
-11 14 -10 9 4 -3 9 -10 16 -15 16 -5 0 -9 5 -9 11 0 6 6 9 13 6 8 -3 20 -1
28 5 11 8 11 9 -3 4 -10 -3 -20 -1 -23 4 -4 6 -1 10 5 10 6 0 9 4 6 9 -4 5 -1
11 4 13 6 2 12 13 13 26 0 12 5 22 10 22 4 0 6 3 3 8 -9 15 23 45 41 38 16 -5
16 -4 -1 9 -19 15 -19 15 2 15 12 0 22 5 22 11 0 5 -4 7 -10 4 -14 -9 -12 17
3 36 13 18 41 14 30 -4 -3 -7 -2 -8 2 -4 13 12 15 36 3 44 -7 4 -8 1 -3 -7 5
-9 4 -11 -4 -6 -6 4 -9 12 -5 17 3 5 10 6 16 3 7 -5 9 -2 6 8 -4 8 3 26 15 39
12 13 38 46 57 73 59 81 115 137 127 125 8 -8 16 -2 29 20 10 16 21 28 26 25
4 -3 8 -3 8 0 0 20 -22 10 -39 -17 -12 -18 -21 -25 -21 -16 0 20 45 63 58 55
5 -3 9 2 8 11 0 9 5 18 12 20 6 3 12 0 12 -7 0 -6 -5 -8 -12 -4 -7 4 -8 3 -4
-5 11 -17 29 -2 23 20 -6 21 17 46 28 29 3 -5 12 -10 18 -10 7 0 7 4 -2 9 -12
8 -7 17 24 46 36 33 41 34 52 18 13 -17 18 -8 13 26 -1 12 1 13 13 2 12 -9 17
-9 23 0 4 8 3 9 -4 5 -7 -4 -12 -3 -12 3 0 10 52 51 66 51 4 0 23 12 42 26
l34 27 -13 -24 c-11 -22 -11 -23 4 -10 10 7 17 19 17 25 0 18 46 36 60 22 8
-8 9 -6 4 9 -7 18 -6 19 9 6 10 -8 20 -11 24 -7 3 3 1 6 -5 6 -21 0 -13 18 11
26 12 5 25 7 30 6 4 -1 7 3 7 10 0 9 3 9 12 0 7 -7 17 -12 22 -12 6 0 5 4 -3
9 -11 7 -9 11 9 21 20 11 22 10 17 -4 -4 -10 -3 -15 3 -11 6 3 10 12 10 20 0
18 21 24 42 13 13 -6 16 -5 12 5 -7 18 30 29 47 13 9 -8 10 -8 5 1 -4 7 3 15
16 19 40 13 47 13 41 -4 -3 -10 1 -8 11 5 18 24 78 45 102 36 8 -3 14 0 14 6
0 6 4 11 10 11 5 0 7 -8 3 -17 -5 -16 -4 -16 9 0 15 20 96 37 84 19 -7 -12 20
-10 31 3 4 4 2 5 -4 1 -7 -4 -13 -2 -13 3 0 14 6 14 31 0 16 -8 25 -7 39 6 13
12 29 15 54 11 20 -3 36 -3 36 2 0 4 45 7 100 7 55 0 100 -3 100 -7z m-300 -8
c0 -5 -5 -10 -11 -10 -5 0 -7 5 -4 10 3 6 8 10 11 10 2 0 4 -4 4 -10z m1820
-1000 c0 -5 -2 -10 -4 -10 -3 0 -8 5 -11 10 -3 6 -1 10 4 10 6 0 11 -4 11 -10z
m940 -40 c0 -5 -4 -10 -10 -10 -5 0 -10 5 -10 10 0 6 5 10 10 10 6 0 10 -4 10
-10z m-5100 -20 c0 -5 -5 -10 -11 -10 -5 0 -7 5 -4 10 3 6 8 10 11 10 2 0 4
-4 4 -10z m820 -1041 c0 -6 -4 -7 -10 -4 -5 3 -10 11 -10 16 0 6 5 7 10 4 6
-3 10 -11 10 -16z m208 -517 c6 -18 -15 -14 -22 4 -4 10 -1 14 6 12 6 -2 14
-10 16 -16z m-908 -122 c0 -5 -2 -10 -4 -10 -3 0 -8 5 -11 10 -3 6 -1 10 4 10
6 0 11 -4 11 -10z m3676 -246 c-21 -20 -28 -17 -14 5 7 11 16 17 20 15 5 -3 2
-12 -6 -20z"/>
<path d="M4140 5330 c-12 -7 -10 -9 8 -7 12 0 22 5 22 9 0 11 -12 10 -30 -2z"/>
<path d="M3960 5320 c-8 -5 -10 -10 -5 -10 6 0 17 5 25 10 8 5 11 10 5 10 -5
0 -17 -5 -25 -10z"/>
<path d="M3798 5293 c7 -3 16 -2 19 1 4 3 -2 6 -13 5 -11 0 -14 -3 -6 -6z"/>
<path d="M3710 5279 c0 -5 -5 -7 -12 -3 -7 4 -8 3 -4 -5 6 -9 11 -9 22 0 17
14 18 19 4 19 -5 0 -10 -5 -10 -11z"/>
<path d="M4530 5286 c0 -2 7 -7 16 -10 8 -3 12 -2 9 4 -6 10 -25 14 -25 6z"/>
<path d="M3535 5230 c-3 -5 -1 -10 4 -10 6 0 11 5 11 10 0 6 -2 10 -4 10 -3 0
-8 -4 -11 -10z"/>
<path d="M3475 5211 c-3 -5 -2 -12 3 -15 5 -3 9 1 9 9 0 17 -3 19 -12 6z"/>
<path d="M3360 5160 c-12 -7 -10 -9 7 -7 12 0 19 5 17 9 -6 10 -6 10 -24 -2z"/>
<path d="M4117 5068 c-394 -38 -694 -258 -783 -574 -24 -84 -28 -298 -8 -389
40 -184 161 -346 336 -450 101 -60 178 -91 448 -181 338 -113 451 -174 537
-285 60 -78 84 -146 88 -251 4 -110 -14 -193 -60 -268 -126 -208 -366 -310
-650 -276 -177 21 -366 135 -472 283 -25 35 -47 63 -50 63 -2 0 -65 -45 -140
-101 l-135 -100 39 -47 c104 -128 209 -209 368 -283 76 -36 209 -78 265 -85
14 -1 52 -6 85 -10 205 -28 436 5 612 86 342 158 508 468 457 855 -30 234
-169 420 -400 539 -104 53 -138 67 -397 155 -299 101 -360 127 -442 185 -132
95 -184 202 -180 371 2 112 20 169 76 251 52 77 104 121 194 166 115 58 288
85 410 64 17 -3 44 -7 60 -10 128 -22 287 -121 371 -231 14 -19 29 -35 33 -35
3 0 18 10 32 23 15 12 70 56 122 97 53 41 96 78 97 82 0 4 -25 33 -55 66 -113
122 -315 234 -480 266 -16 4 -41 9 -55 11 -14 3 -68 8 -120 11 -52 3 -99 6
-105 8 -5 1 -49 -2 -98 -6z"/>
<path d="M3146 5042 c-2 -4 4 -8 14 -8 10 0 16 4 14 8 -3 4 -9 8 -14 8 -5 0
-11 -4 -14 -8z"/>
<path d="M3127 5019 c7 -7 15 -10 18 -7 3 3 -2 9 -12 12 -14 6 -15 5 -6 -5z"/>
<path d="M5206 4977 c3 -10 9 -15 12 -12 3 3 0 11 -7 18 -10 9 -11 8 -5 -6z"/>
<path d="M3006 4941 c-4 -5 -2 -12 3 -15 5 -4 12 -2 15 3 4 5 2 12 -3 15 -5 4
-12 2 -15 -3z"/>
<path d="M2955 4890 c3 -5 8 -10 11 -10 2 0 4 5 4 10 0 6 -5 10 -11 10 -5 0
-7 -4 -4 -10z"/>
<path d="M5325 4870 c3 -5 8 -10 11 -10 2 0 4 5 4 10 0 6 -5 10 -11 10 -5 0
-7 -4 -4 -10z"/>
<path d="M5421 4777 c2 -1 13 -9 24 -17 19 -14 19 -14 6 3 -7 9 -18 17 -24 17
-6 0 -8 -1 -6 -3z"/>
<path d="M2804 4749 c-8 -14 14 -19 25 -6 8 10 7 14 -5 14 -8 0 -17 -4 -20 -8z"/>
<path d="M2790 4720 c0 -6 -6 -8 -12 -4 -7 4 -10 4 -6 -1 4 -4 3 -14 -3 -22
-17 -20 -1 -15 21 7 11 11 15 22 10 25 -6 4 -10 1 -10 -5z"/>
<path d="M2735 4661 c-3 -5 0 -13 6 -17 7 -4 9 -3 5 4 -3 5 0 13 6 15 9 4 10
6 1 6 -6 1 -14 -3 -18 -8z"/>
<path d="M2720 4632 c0 -6 -16 -27 -36 -46 -24 -24 -31 -36 -23 -42 7 -4 9 -3
5 4 -3 6 2 16 12 21 23 12 56 60 48 69 -3 3 -6 0 -6 -6z"/>
<path d="M5610 4540 c6 -11 13 -20 16 -20 2 0 0 9 -6 20 -6 11 -13 20 -16 20
-2 0 0 -9 6 -20z"/>
<path d="M2610 4481 c0 -6 4 -13 10 -16 6 -3 7 1 4 9 -7 18 -14 21 -14 7z"/>
<path d="M5696 4387 c3 -10 9 -15 12 -12 3 3 0 11 -7 18 -10 9 -11 8 -5 -6z"/>
<path d="M2560 4380 c10 -6 11 -10 3 -10 -7 0 -13 -5 -13 -11 0 -8 5 -8 15 1
16 13 11 30 -8 30 -7 0 -6 -4 3 -10z"/>
<path d="M2536 4325 c-9 -26 -7 -32 5 -12 6 10 9 21 6 23 -2 3 -7 -2 -11 -11z"/>
<path d="M2457 4139 c7 -7 15 -10 18 -7 3 3 -2 9 -12 12 -14 6 -15 5 -6 -5z"/>
<path d="M2446 4112 c-3 -5 1 -9 9 -9 8 0 15 4 15 9 0 4 -4 8 -9 8 -6 0 -12
-4 -15 -8z"/>
<path d="M5805 4110 c3 -5 8 -10 11 -10 2 0 4 5 4 10 0 6 -5 10 -11 10 -5 0
-7 -4 -4 -10z"/>
<path d="M2431 4055 c0 -11 -2 -32 -5 -47 -2 -16 0 -28 6 -28 6 0 7 7 4 16 -4
9 1 28 10 42 9 13 11 22 6 18 -6 -3 -12 0 -15 6 -3 7 -5 4 -6 -7z"/>
<path d="M2410 3961 c0 -6 4 -12 8 -15 5 -3 9 1 9 9 0 8 -4 15 -9 15 -4 0 -8
-4 -8 -9z"/>
<path d="M5850 3930 c0 -5 5 -10 11 -10 5 0 7 5 4 10 -3 6 -8 10 -11 10 -2 0
-4 -4 -4 -10z"/>
<path d="M2395 3870 c-3 -5 -1 -10 4 -10 6 0 11 5 11 10 0 6 -2 10 -4 10 -3 0
-8 -4 -11 -10z"/>
<path d="M2380 3806 c0 -2 7 -7 16 -10 8 -3 12 -2 9 4 -6 10 -25 14 -25 6z"/>
<path d="M2375 3770 c-3 -5 -2 -10 4 -10 5 0 13 5 16 10 3 6 2 10 -4 10 -5 0
-13 -4 -16 -10z"/>
<path d="M2382 3741 c-11 -6 -10 -10 0 -19 11 -8 14 -7 14 9 0 10 0 19 -1 19
0 0 -6 -4 -13 -9z"/>
<path d="M2375 3690 c3 -5 11 -10 16 -10 6 0 7 5 4 10 -3 6 -11 10 -16 10 -6
0 -7 -4 -4 -10z"/>
<path d="M2370 3601 c0 -6 4 -12 8 -15 5 -3 9 1 9 9 0 8 -4 15 -9 15 -4 0 -8
-4 -8 -9z"/>
<path d="M2377 3506 c-3 -8 0 -17 7 -19 10 -4 12 1 9 14 -6 23 -9 24 -16 5z"/>
<path d="M2386 3358 c3 -5 10 -6 15 -3 13 9 11 12 -6 12 -8 0 -12 -4 -9 -9z"/>
<path d="M2421 3201 c-8 -5 -9 -11 -3 -15 5 -3 12 1 16 9 6 17 6 18 -13 6z"/>
<path d="M2462 3064 c-7 -8 -8 -14 -3 -14 10 0 25 19 20 25 -2 1 -10 -3 -17
-11z"/>
<path d="M2469 3033 c-13 -16 -12 -17 4 -4 9 7 17 15 17 17 0 8 -8 3 -21 -13z"/>
<path d="M2475 3010 c-3 -5 -5 -10 -3 -11 33 -8 38 -7 27 7 -14 17 -16 17 -24
4z"/>
<path d="M5776 2993 c-6 -14 -5 -15 5 -6 7 7 10 15 7 18 -3 3 -9 -2 -12 -12z"/>
<path d="M2490 2969 c0 -5 5 -7 10 -4 6 3 10 8 10 11 0 2 -4 4 -10 4 -5 0 -10
-5 -10 -11z"/>
<path d="M2520 2910 c-9 -6 -10 -10 -3 -10 6 0 15 5 18 10 8 12 4 12 -15 0z"/>
<path d="M2537 2893 c-4 -3 -7 -11 -7 -17 0 -6 5 -5 12 2 6 6 9 14 7 17 -3 3
-9 2 -12 -2z"/>
<path d="M5725 2879 c-4 -6 -5 -12 -2 -15 2 -3 7 2 10 11 7 17 1 20 -8 4z"/>
<path d="M2550 2865 c0 -5 5 -17 10 -25 5 -8 10 -10 10 -5 0 6 -5 17 -10 25
-5 8 -10 11 -10 5z"/>
<path d="M2566 2804 c-5 -14 -4 -15 9 -4 17 14 19 20 6 20 -5 0 -12 -7 -15
-16z"/>
<path d="M2600 2756 c0 -2 7 -7 16 -10 8 -3 12 -2 9 4 -6 10 -25 14 -25 6z"/>
<path d="M5614 2661 c4 -6 1 -14 -8 -17 -8 -3 -17 -12 -20 -19 -7 -20 17 -8
32 15 8 14 9 21 0 26 -7 4 -8 3 -4 -5z"/>
<path d="M2685 2590 c3 -5 8 -10 11 -10 2 0 4 5 4 10 0 6 -5 10 -11 10 -5 0
-7 -4 -4 -10z"/>
<path d="M2710 2589 c0 -5 5 -7 10 -4 6 3 10 8 10 11 0 2 -4 4 -10 4 -5 0 -10
-5 -10 -11z"/>
<path d="M5555 2590 c-3 -6 1 -7 9 -4 18 7 21 14 7 14 -6 0 -13 -4 -16 -10z"/>
<path d="M2740 2528 c0 -4 5 -8 11 -8 5 0 7 -4 4 -10 -4 -6 1 -7 11 -3 12 4
15 3 10 -5 -4 -7 -2 -12 3 -12 16 0 13 20 -4 26 -8 4 -13 9 -10 13 2 4 -2 8
-10 8 -8 0 -15 -4 -15 -9z"/>
<path d="M2799 2471 c11 -7 11 -9 0 -14 -8 -3 -4 -4 8 -4 17 1 19 4 11 14 -6
7 -16 13 -22 13 -6 0 -5 -4 3 -9z"/>
<path d="M2848 2417 c12 -13 19 -27 15 -31 -4 -4 0 -4 9 -1 15 6 14 10 -7 31
-31 31 -46 32 -17 1z"/>
<path d="M2932 2327 c10 -8 15 -17 11 -20 -3 -4 -1 -7 5 -7 20 0 13 19 -10 30
-21 10 -21 10 -6 -3z"/>
<path d="M3013 2265 c0 -8 4 -12 9 -9 5 3 6 10 3 15 -9 13 -12 11 -12 -6z"/>
<path d="M5270 2270 c-8 -5 -10 -10 -5 -10 6 0 17 5 25 10 8 5 11 10 5 10 -5
0 -17 -5 -25 -10z"/>
<path d="M5235 2250 c-3 -5 -1 -10 4 -10 6 0 11 5 11 10 0 6 -2 10 -4 10 -3 0
-8 -4 -11 -10z"/>
<path d="M3060 2225 c-7 -9 -8 -15 -2 -15 5 0 12 7 16 15 3 8 4 15 2 15 -2 0
-9 -7 -16 -15z"/>
<path d="M3113 2193 c9 -2 15 -9 12 -14 -3 -5 1 -6 10 -2 13 5 14 7 3 14 -7 5
-20 8 -28 8 -11 -1 -10 -3 3 -6z"/>
<path d="M5170 2189 c0 -5 5 -7 10 -4 6 3 10 8 10 11 0 2 -4 4 -10 4 -5 0 -10
-5 -10 -11z"/>
<path d="M3155 2151 c-4 -7 0 -8 11 -4 12 4 15 3 10 -5 -4 -7 -2 -12 4 -12 14
0 8 22 -7 27 -6 2 -14 -1 -18 -6z"/>
<path d="M5096 2144 c-3 -8 -11 -12 -17 -8 -8 4 -9 3 -5 -4 9 -15 36 -4 36 14
0 19 -6 18 -14 -2z"/>
<path d="M3199 2123 c-13 -16 -12 -17 4 -4 16 13 21 21 13 21 -2 0 -10 -8 -17
-17z"/>
<path d="M5050 2109 c0 -6 -7 -9 -14 -6 -10 4 -13 1 -10 -8 5 -11 10 -12 25
-2 20 13 25 27 9 27 -5 0 -10 -5 -10 -11z"/>
<path d="M3307 2066 c-3 -8 -3 -17 0 -20 10 -10 33 -7 33 4 0 5 -7 7 -15 4
-11 -5 -13 -2 -9 10 3 9 4 16 1 16 -3 0 -7 -6 -10 -14z"/>
<path d="M4970 2069 c0 -5 -4 -8 -9 -4 -5 3 -12 1 -15 -4 -4 -5 2 -8 11 -7 15
3 33 26 19 26 -3 0 -6 -5 -6 -11z"/>
<path d="M3353 2037 c0 -12 1 -16 4 -9 4 10 9 9 20 -5 13 -17 13 -16 3 4 -15
31 -26 35 -27 10z"/>
<path d="M4900 2034 c-9 -10 -9 -14 -1 -14 6 0 11 4 11 10 0 5 7 7 15 4 8 -4
15 -4 15 -1 0 13 -30 14 -40 1z"/>
<path d="M4855 2010 c3 -5 8 -10 11 -10 2 0 4 5 4 10 0 6 -5 10 -11 10 -5 0
-7 -4 -4 -10z"/>
<path d="M4747 1966 c-4 -10 -1 -13 9 -9 7 3 14 9 14 14 0 14 -17 10 -23 -5z"/>
<path d="M4695 1950 c-3 -5 -1 -10 4 -10 6 0 11 5 11 10 0 6 -2 10 -4 10 -3 0
-8 -4 -11 -10z"/>
<path d="M3620 1930 c-9 -6 -10 -10 -3 -10 6 0 15 5 18 10 8 12 4 12 -15 0z"/>
<path d="M3766 1897 c-16 -12 -16 -13 2 -14 10 -1 19 5 19 13 0 17 1 17 -21 1z"/>
<path d="M3808 1888 c5 -5 16 -10 23 -11 8 -2 20 -6 27 -10 7 -5 12 -3 12 3 0
6 5 8 11 5 15 -10 59 -13 64 -5 2 3 -9 7 -26 8 -16 1 -42 3 -59 4 -16 1 -30 5
-30 8 0 4 -7 7 -15 7 -9 0 -12 -4 -7 -9z"/>
<path d="M4378 1878 c5 -5 16 -8 23 -6 8 3 3 7 -10 11 -17 4 -21 3 -13 -5z"/>
<path d="M4428 1878 c5 -5 16 -8 23 -6 8 3 3 7 -10 11 -17 4 -21 3 -13 -5z"/>
<path d="M3962 1864 c-14 -16 -5 -18 17 -5 7 5 9 11 5 14 -5 3 -15 -1 -22 -9z"/>
<path d="M4023 1858 c10 -9 25 -14 32 -11 23 8 18 22 -7 18 -12 -3 -27 -1 -33
3 -6 4 -3 -1 8 -10z"/>
<path d="M4346 1867 c3 -10 9 -15 12 -12 3 3 0 11 -7 18 -10 9 -11 8 -5 -6z"/>
<path d="M4087 1857 c2 -4 16 -5 30 -3 38 7 38 14 -1 12 -19 0 -32 -4 -29 -9z"/>
<path d="M4166 1858 c3 -4 0 -8 -7 -8 -7 0 -10 -2 -7 -5 7 -7 38 5 38 14 0 4
-7 8 -15 8 -8 0 -12 -4 -9 -9z"/>
<path d="M4210 1861 c0 -5 7 -12 16 -15 14 -5 15 -4 4 9 -14 17 -20 19 -20 6z"/>
<path d="M3977 6133 c-4 -3 -7 -11 -7 -17 0 -6 5 -5 12 2 6 6 9 14 7 17 -3 3
-9 2 -12 -2z"/>
<path d="M4005 6129 c-4 -6 -5 -12 -2 -15 2 -3 7 2 10 11 7 17 1 20 -8 4z"/>
<path d="M4216 6125 c-2 -6 5 -11 15 -11 10 0 20 5 23 11 2 6 -5 11 -15 11
-10 0 -20 -5 -23 -11z"/>
<path d="M4276 6127 c3 -10 9 -15 12 -12 3 3 0 11 -7 18 -10 9 -11 8 -5 -6z"/>
<path d="M3859 6113 c-13 -17 -13 -17 6 -3 11 8 22 16 24 17 2 2 0 3 -6 3 -6
0 -17 -8 -24 -17z"/>
<path d="M4370 6115 c0 -8 2 -15 4 -15 2 0 6 7 10 15 3 8 1 15 -4 15 -6 0 -10
-7 -10 -15z"/>
<path d="M4415 6120 c3 -5 8 -10 11 -10 2 0 4 5 4 10 0 6 -5 10 -11 10 -5 0
-7 -4 -4 -10z"/>
<path d="M3734 6112 c3 -5 0 -13 -6 -15 -9 -4 -10 -6 -1 -6 17 -1 25 16 12 25
-7 4 -9 3 -5 -4z"/>
<path d="M3776 6105 c-3 -8 -1 -15 4 -15 6 0 10 7 10 15 0 8 -2 15 -4 15 -2 0
-6 -7 -10 -15z"/>
<path d="M3690 6100 c0 -5 5 -10 11 -10 5 0 7 5 4 10 -3 6 -8 10 -11 10 -2 0
-4 -4 -4 -10z"/>
<path d="M3606 6083 c-6 -14 -5 -15 5 -6 7 7 10 15 7 18 -3 3 -9 -2 -12 -12z"/>
<path d="M4590 6090 c0 -5 5 -10 11 -10 5 0 7 5 4 10 -3 6 -8 10 -11 10 -2 0
-4 -4 -4 -10z"/>
<path d="M3570 6079 c0 -5 -5 -7 -12 -3 -7 4 -8 3 -4 -5 6 -9 11 -9 22 0 17
14 18 19 4 19 -5 0 -10 -5 -10 -11z"/>
<path d="M4725 6070 c-3 -5 -1 -10 4 -10 6 0 11 5 11 10 0 6 -2 10 -4 10 -3 0
-8 -4 -11 -10z"/>
<path d="M4750 6070 c0 -5 5 -10 11 -10 5 0 7 5 4 10 -3 6 -8 10 -11 10 -2 0
-4 -4 -4 -10z"/>
<path d="M3480 6061 c0 -7 -5 -9 -12 -5 -7 5 -8 3 -3 -5 5 -9 10 -10 18 -2 6
6 8 14 4 18 -4 3 -7 1 -7 -6z"/>
<path d="M4781 6057 c-8 -10 -7 -14 4 -14 8 0 12 4 9 8 -2 4 2 10 8 12 8 4 9
6 2 6 -6 1 -17 -5 -23 -12z"/>
<path d="M4861 6041 c-8 -5 -9 -11 -3 -15 5 -3 12 1 16 9 6 17 6 18 -13 6z"/>
<path d="M3387 6029 c7 -7 15 -10 18 -7 3 3 -2 9 -12 12 -14 6 -15 5 -6 -5z"/>
<path d="M4884 6029 c-3 -6 5 -8 20 -5 14 3 26 1 26 -4 0 -4 8 -11 17 -14 16
-6 16 -6 0 11 -18 21 -53 27 -63 12z"/>
<path d="M3325 6020 c-3 -6 1 -7 9 -4 18 7 21 14 7 14 -6 0 -13 -4 -16 -10z"/>
<path d="M4995 6001 c-3 -5 0 -13 6 -17 7 -4 9 -3 5 4 -3 5 0 13 6 15 9 4 10
6 1 6 -6 1 -14 -3 -18 -8z"/>
<path d="M3210 5985 c-7 -9 -11 -17 -9 -20 3 -2 10 5 17 15 14 24 10 26 -8 5z"/>
<path d="M3236 5983 c-6 -14 -5 -15 5 -6 7 7 10 15 7 18 -3 3 -9 -2 -12 -12z"/>
<path d="M5030 5988 c0 -6 3 -8 7 -5 3 4 17 0 30 -8 13 -9 23 -12 23 -7 0 5
-11 14 -25 20 -32 15 -35 15 -35 0z"/>
<path d="M5140 5948 c0 -4 7 -8 15 -8 8 0 15 -5 15 -12 0 -6 2 -9 5 -6 10 9
-5 35 -20 35 -8 0 -15 -4 -15 -9z"/>
<path d="M3012 5904 c-7 -8 -18 -11 -24 -8 -7 4 -8 2 -4 -4 8 -14 46 2 46 18
0 13 -2 12 -18 -6z"/>
<path d="M5297 5886 c-4 -10 1 -12 14 -9 23 6 24 9 5 16 -8 3 -17 0 -19 -7z"/>
<path d="M5325 5870 c-17 -8 -17 -9 7 -7 15 1 24 5 22 9 -3 4 -6 8 -7 7 -1 0
-11 -4 -22 -9z"/>
<path d="M5366 5853 c-6 -14 -5 -15 5 -6 7 7 10 15 7 18 -3 3 -9 -2 -12 -12z"/>
<path d="M2890 5848 c0 -4 -7 -8 -15 -8 -8 0 -15 -5 -15 -10 0 -6 14 -3 33 6
42 22 43 23 18 21 -11 -1 -21 -5 -21 -9z"/>
<path d="M5393 5853 c4 -6 2 -13 -5 -15 -8 -3 -6 -7 5 -11 23 -9 30 8 10 24
-9 8 -14 9 -10 2z"/>
<path d="M2820 5820 c-9 -6 -10 -10 -3 -10 6 0 15 5 18 10 8 12 4 12 -15 0z"/>
<path d="M5424 5818 c-5 -7 -3 -8 5 -4 7 5 19 0 27 -10 14 -18 14 -18 4 4 -12
24 -25 28 -36 10z"/>
<path d="M5479 5807 c6 -8 7 -18 3 -22 -4 -5 -1 -5 6 -1 10 6 10 11 1 22 -6 8
-14 14 -16 14 -3 0 0 -6 6 -13z"/>
<path d="M2756 5784 c-11 -8 -16 -14 -10 -14 13 0 39 18 34 24 -3 2 -14 -2
-24 -10z"/>
<path d="M5529 5764 c-12 -15 -12 -16 0 -9 9 5 19 2 28 -10 7 -11 13 -13 13
-6 0 7 5 9 12 5 7 -4 8 -3 4 5 -4 6 -11 9 -16 6 -5 -3 -13 2 -18 10 -8 15 -10
14 -23 -1z"/>
<path d="M2715 5760 c3 -5 8 -10 11 -10 2 0 4 5 4 10 0 6 -5 10 -11 10 -5 0
-7 -4 -4 -10z"/>
<path d="M2680 5740 c-9 -6 -10 -10 -3 -10 6 0 15 5 18 10 8 12 4 12 -15 0z"/>
<path d="M2645 5721 c-3 -5 -2 -12 3 -15 5 -3 9 1 9 9 0 17 -3 19 -12 6z"/>
<path d="M5630 5710 c0 -5 5 -10 11 -10 5 0 7 -5 3 -12 -4 -7 -3 -8 5 -4 9 6
9 11 0 22 -14 17 -19 18 -19 4z"/>
<path d="M2588 5683 c6 -2 9 -10 6 -15 -4 -7 -2 -8 5 -4 13 9 5 26 -12 25 -9
0 -8 -2 1 -6z"/>
<path d="M2445 5570 c3 -5 8 -10 11 -10 2 0 4 5 4 10 0 6 -5 10 -11 10 -5 0
-7 -4 -4 -10z"/>
<path d="M2376 5523 c-6 -14 -5 -15 5 -6 7 7 10 15 7 18 -3 3 -9 -2 -12 -12z"/>
<path d="M2289 5458 c0 -2 -2 -11 -4 -21 -3 -15 -1 -16 11 -6 7 6 11 15 8 20
-5 9 -13 12 -15 7z"/>
<path d="M2250 5408 c-12 -22 -12 -22 6 -6 10 10 15 20 12 24 -4 3 -12 -5 -18
-18z"/>
<path d="M6003 5405 c6 -7 15 -11 20 -8 13 8 7 19 -13 20 -16 1 -17 -1 -7 -12z"/>
<path d="M2161 5323 c3 -20 -2 -27 -11 -13 -7 12 -9 10 -7 -7 1 -21 3 -21 19
-6 10 8 15 20 12 24 -6 11 -14 12 -13 2z"/>
<path d="M6122 5301 c7 -11 16 -17 20 -15 5 3 2 12 -6 20 -21 20 -28 17 -14
-5z"/>
<path d="M6146 5271 c-4 -5 -2 -12 4 -16 5 -3 10 -3 10 2 0 4 5 1 10 -7 5 -8
10 -10 10 -4 0 17 -27 37 -34 25z"/>
<path d="M6195 5210 c3 -5 8 -10 11 -10 2 0 4 5 4 10 0 6 -5 10 -11 10 -5 0
-7 -4 -4 -10z"/>
<path d="M6215 5190 c-3 -5 -2 -10 4 -10 5 0 13 5 16 10 3 6 2 10 -4 10 -5 0
-13 -4 -16 -10z"/>
<path d="M2030 5169 c0 -5 5 -7 10 -4 6 3 10 8 10 11 0 2 -4 4 -10 4 -5 0 -10
-5 -10 -11z"/>
<path d="M6257 5134 c2 -7 11 -10 19 -7 19 7 18 10 -5 16 -13 3 -18 1 -14 -9z"/>
<path d="M6276 5112 c-2 -4 4 -9 15 -9 11 -1 17 2 14 8 -7 11 -22 12 -29 1z"/>
<path d="M6301 5081 c-9 -6 -10 -11 -2 -15 6 -4 11 -2 11 5 0 7 9 5 23 -7 l22
-19 -19 23 c-11 12 -20 22 -20 22 -1 0 -7 -4 -15 -9z"/>
<path d="M6335 5035 c11 -9 19 -24 17 -33 -2 -10 1 -13 5 -7 5 6 11 12 15 16
4 3 -7 13 -25 23 -26 14 -28 14 -12 1z"/>
<path d="M6377 4989 c7 -7 15 -10 18 -7 3 3 -2 9 -12 12 -14 6 -15 5 -6 -5z"/>
<path d="M6405 4940 c-16 -7 -17 -9 -3 -9 9 -1 20 4 23 9 7 11 7 11 -20 0z"/>
<path d="M6420 4900 c6 -11 12 -20 14 -20 2 0 2 9 -1 20 -3 11 -9 20 -15 20
-5 0 -4 -9 2 -20z"/>
<path d="M1835 4900 c3 -5 8 -10 11 -10 2 0 4 5 4 10 0 6 -5 10 -11 10 -5 0
-7 -4 -4 -10z"/>
<path d="M6450 4885 c0 -5 5 -17 10 -25 5 -8 10 -10 10 -5 0 6 -5 17 -10 25
-5 8 -10 11 -10 5z"/>
<path d="M1798 4835 c-21 -27 -24 -43 -5 -23 26 28 39 48 31 48 -5 0 -17 -11
-26 -25z"/>
<path d="M1766 4778 c3 -5 10 -6 15 -3 13 9 11 12 -6 12 -8 0 -12 -4 -9 -9z"/>
<path d="M6515 4743 c4 -10 8 -24 8 -30 1 -18 14 -16 21 3 3 8 2 12 -4 9 -9
-6 -14 8 -11 28 0 4 -4 7 -10 7 -7 0 -8 -7 -4 -17z"/>
<path d="M6562 4654 c-7 -8 -8 -14 -3 -14 10 0 25 19 20 25 -2 1 -10 -3 -17
-11z"/>
<path d="M6583 4628 c3 -9 1 -19 -6 -21 -7 -2 -9 -7 -6 -11 12 -13 28 19 17
34 -8 13 -9 12 -5 -2z"/>
<path d="M6585 4580 c-3 -6 1 -7 9 -4 18 7 21 14 7 14 -6 0 -13 -4 -16 -10z"/>
<path d="M6635 4490 c-3 -5 -1 -10 4 -10 6 0 11 5 11 10 0 6 -2 10 -4 10 -3 0
-8 -4 -11 -10z"/>
<path d="M6630 4466 c0 -2 7 -7 16 -10 8 -3 12 -2 9 4 -6 10 -25 14 -25 6z"/>
<path d="M6654 4388 c-4 -7 -4 -10 1 -6 4 4 14 3 22 -4 11 -8 12 -7 7 6 -7 19
-20 21 -30 4z"/>
<path d="M6669 4356 c7 -8 9 -21 5 -27 -4 -8 -3 -9 4 -5 17 10 15 33 -4 40
-14 5 -15 4 -5 -8z"/>
<path d="M1583 4335 c0 -8 4 -12 9 -9 5 3 6 10 3 15 -9 13 -12 11 -12 -6z"/>
<path d="M6715 4199 c-4 -5 -4 -13 -1 -16 3 -4 6 0 6 8 0 11 2 11 10 -1 6 -9
10 -10 10 -3 0 17 -17 25 -25 12z"/>
<path d="M6723 4155 c0 -7 6 -11 14 -8 7 3 13 6 13 8 0 2 -6 5 -13 8 -8 3 -14
-1 -14 -8z"/>
<path d="M6746 4114 c3 -35 12 -41 12 -9 0 14 -4 27 -8 30 -4 2 -6 -7 -4 -21z"/>
<path d="M6751 4037 c-8 -10 -7 -14 2 -14 8 0 14 6 14 14 0 7 -1 13 -2 13 -2
0 -8 -6 -14 -13z"/>
<path d="M6755 4003 c14 -12 18 -43 5 -43 -6 0 -8 -5 -4 -11 5 -8 9 -7 15 3
11 20 5 51 -12 56 -8 2 -10 0 -4 -5z"/>
<path d="M1500 3989 c0 -5 5 -7 10 -4 6 3 10 8 10 11 0 2 -4 4 -10 4 -5 0 -10
-5 -10 -11z"/>
<path d="M6761 3925 c-1 -6 4 -16 11 -23 9 -9 9 -12 -2 -12 -12 0 -12 -2 -2
-9 8 -4 13 -12 12 -17 -1 -5 4 -10 12 -12 8 -2 9 -1 2 5 -6 4 -10 20 -9 35 1
15 -2 25 -6 23 -4 -3 -10 1 -12 7 -3 7 -6 8 -6 3z"/>
<path d="M1490 3889 c0 -5 5 -7 10 -4 6 3 10 8 10 11 0 2 -4 4 -10 4 -5 0 -10
-5 -10 -11z"/>
<path d="M6770 3830 c0 -5 5 -10 10 -10 6 0 10 5 10 10 0 6 -4 10 -10 10 -5 0
-10 -4 -10 -10z"/>
<path d="M6782 3801 c-11 -7 -11 -9 0 -14 9 -3 15 1 15 9 0 8 -1 14 -1 14 -1
0 -7 -4 -14 -9z"/>
<path d="M1483 3775 c0 -8 4 -12 9 -9 5 3 6 10 3 15 -9 13 -12 11 -12 -6z"/>
<path d="M6790 3759 c0 -5 5 -7 10 -4 6 3 10 8 10 11 0 2 -4 4 -10 4 -5 0 -10
-5 -10 -11z"/>
<path d="M6780 3730 c0 -6 7 -10 15 -10 8 0 15 2 15 4 0 2 -7 6 -15 10 -8 3
-15 1 -15 -4z"/>
<path d="M6780 3690 c0 -5 7 -7 15 -4 8 4 15 8 15 10 0 2 -7 4 -15 4 -8 0 -15
-4 -15 -10z"/>
<path d="M6790 3640 c-9 -6 -10 -10 -3 -10 6 0 15 5 18 10 8 12 4 12 -15 0z"/>
<path d="M1470 3589 c0 -5 5 -7 10 -4 6 3 10 8 10 11 0 2 -4 4 -10 4 -5 0 -10
-5 -10 -11z"/>
<path d="M6793 3583 c-17 -6 -17 -20 0 -20 8 0 14 6 14 14 0 7 -1 13 -1 12 -1
0 -7 -3 -13 -6z"/>
<path d="M6785 3479 c-4 -12 -2 -26 5 -33 8 -8 10 -7 4 7 -3 9 -1 24 6 32 8 9
8 15 2 15 -6 0 -14 -9 -17 -21z"/>
<path d="M6777 3394 c-8 -8 3 -34 15 -34 6 0 6 6 -1 14 -9 11 -9 15 1 19 7 3
8 6 2 6 -6 1 -13 -2 -17 -5z"/>
<path d="M6773 3305 c0 -8 4 -12 9 -9 4 3 8 9 8 15 0 5 -4 9 -8 9 -5 0 -9 -7
-9 -15z"/>
<path d="M1610 2791 c0 -6 4 -13 10 -16 6 -3 7 1 4 9 -7 18 -14 21 -14 7z"/>
<path d="M2286 1758 c10 -14 21 -24 23 -22 3 3 -6 15 -18 27 l-24 22 19 -27z"/>
<path d="M5880 1675 c-7 -9 -8 -15 -2 -15 5 0 12 7 16 15 3 8 4 15 2 15 -2 0
-9 -7 -16 -15z"/>
<path d="M5791 1607 c-8 -10 -7 -14 2 -14 8 0 14 6 14 14 0 7 -1 13 -2 13 -2
0 -8 -6 -14 -13z"/>
<path d="M5767 1579 c7 -7 15 -10 18 -7 3 3 -2 9 -12 12 -14 6 -15 5 -6 -5z"/>
<path d="M5716 1552 c-3 -5 1 -9 9 -9 8 0 12 4 9 9 -3 4 -7 8 -9 8 -2 0 -6 -4
-9 -8z"/>
<path d="M5400 1349 c0 -5 5 -7 10 -4 6 3 10 8 10 11 0 2 -4 4 -10 4 -5 0 -10
-5 -10 -11z"/>
<path d="M5340 1320 c-8 -5 -10 -10 -5 -10 6 0 17 5 25 10 8 5 11 10 5 10 -5
0 -17 -5 -25 -10z"/>
<path d="M5275 1290 c-3 -5 -1 -10 4 -10 6 0 11 5 11 10 0 6 -2 10 -4 10 -3 0
-8 -4 -11 -10z"/>
<path d="M3150 1236 c0 -2 8 -10 18 -17 15 -13 16 -12 3 4 -13 16 -21 21 -21
13z"/>
<path d="M5049 1203 c-13 -16 -12 -17 4 -4 9 7 17 15 17 17 0 8 -8 3 -21 -13z"/>
<path d="M4626 1098 c3 -5 10 -6 15 -3 13 9 11 12 -6 12 -8 0 -12 -4 -9 -9z"/>
<path d="M3856 1072 c-3 -5 1 -9 9 -9 8 0 12 4 9 9 -3 4 -7 8 -9 8 -2 0 -6 -4
-9 -8z"/>
<path d="M4468 1073 c6 -2 18 -2 25 0 6 3 1 5 -13 5 -14 0 -19 -2 -12 -5z"/>
<path d="M4075 1060 c3 -5 8 -10 11 -10 2 0 4 5 4 10 0 6 -5 10 -11 10 -5 0
-7 -4 -4 -10z"/>
<path d="M4150 1060 c0 -5 5 -10 10 -10 6 0 10 5 10 10 0 6 -4 10 -10 10 -5 0
-10 -4 -10 -10z"/>
</g>
</svg>
